{"title":"Kumonosu-jo [Throne of Blood] (Kurosawa, 1957)","uid":6979994,"size":4703826635,"categoryP":"video","categoryS":"hd___movies","magnet":"?xt=urn:btih:c751fe98815f11db941eabb538f5196bc27a834e&amp;dn=Kumonosu-jo+%5BThrone+of+Blood%5D+%28Kurosawa%2C+1957%29&amp;tr=udp%3A%2F%2Ftracker.openbittorrent.com%3A80&amp;tr=udp%3A%2F%2Fopen.demonii.com%3A1337&amp;tr=udp%3A%2F%2Ftracker.coppersurfer.tk%3A6969&amp;tr=udp%3A%2F%2Fexodus.desync.com%3A6969","seeders":1,"leechers":0,"uploader":"mfccorrea","files":3,"time":1327367454,"description":"Macbeth is reimagined as a samurai in feudal Japan in director Akira Kurosawa's classic adaptation of the Shakespearean tragedy. Familiar with Orson Welles's more faithful adaptation, Kurosawa chose to place a more personal stamp on his version by translating the events and characters to historical Japan. The equivalent of the tragic Scottish lord is Taketoki Washizu (Toshiro Mifune), a valiant warrior whose life is transformed by an encounter with a ghostly female spirit. The spirit offers several predictions, finally stating that Washizu will rise to power over the current warlord. When these predictions begin coming true, he and his ambitious wife decide to ensure his ascendancy to power by murdering the current ruler. As with Macbeth, Washizu achieves his goal, but his guilt and the suspicions of others soon bring about his downfall. The shift to Japanese settings is seamless, creating a historically accurate and resonant work with a culturally distinct visual style. The supporting performances also recall Japanese tradition, particularly Isuzu Yamada's creepily unemotional take on Lady Macbeth, while Mifune proves consistently gripping in the sheer intensity of his performance. The intelligence of Kurosawa's alterations retains the drama's tragic impact, especially during the conclusion, in which Washizu makes a memorable final stand against an advancing army. Impressive in every regard, Throne of Blood seems secure in the pantheon of superior film adaptations of William Shakespeare.\n\n   General\n      Complete name : Throne of Blood.mkv\n      Format : Matroska\n      File size : 4.38 GiB\n      Duration : 1h 49mn\n      Overall bit rate : 5 717 Kbps\n      Movie name : Akira Kurosawa-Throne of Blood (1957)\n      Encoded date : UTC 2011-12-30 21:01:34\n      Writing application : mkvmerge v5.2.0 ('I can't explain') built on Dec 18 2011 18:12:03\n      Writing library : libebml v1.2.3 + libmatroska v1.3.0\n   Video #1\n      ID : 1\n      Format : AVC\n      Format/Info : Advanced Video Codec\n      Format profile : &lt;a class=&quot;__cf_email__&quot; href=&quot;/cdn-cgi/l/email-protection&quot; data-cfemail=&quot;b0f8d9d7d8f0fc849e81&quot;&gt;[email&amp;#160;protected]&lt;/a&gt;&lt;script cf-hash='f9e31' type=&quot;text/javascript&quot;&gt;\n/* &lt;![CDATA[ */!function(){try{var t=&quot;currentScript&quot;in document?document.currentScript:function(){for(var t=document.getElementsByTagName(&quot;script&quot;),e=t.length;e--;)if(t[e].getAttribute(&quot;cf-hash&quot;))return t[e]}();if(t&amp;&amp;t.previousSibling){var e,r,n,i,c=t.previousSibling,a=c.getAttribute(&quot;data-cfemail&quot;);if(a){for(e=&quot;&quot;,r=parseInt(a.substr(0,2),16),n=2;a.length-n;n+=2)i=parseInt(a.substr(n,2),16)^r,e+=String.fromCharCode(i);e=document.createTextNode(e),c.parentNode.replaceChild(e,c)}}}catch(u){}}();/* ]]&gt; */&lt;/script&gt;\n      Format settings, CABAC : Yes\n      Format settings, ReFrames : 5 frames\n      Muxing mode : Container profile=&lt;a class=&quot;__cf_email__&quot; href=&quot;/cdn-cgi/l/email-protection&quot; data-cfemail=&quot;9acff4f1f4f5edf4daaeb4ab&quot;&gt;[email&amp;#160;protected]&lt;/a&gt;&lt;script cf-hash='f9e31' type=&quot;text/javascript&quot;&gt;\n/* &lt;![CDATA[ */!function(){try{var t=&quot;currentScript&quot;in document?document.currentScript:function(){for(var t=document.getElementsByTagName(&quot;script&quot;),e=t.length;e--;)if(t[e].getAttribute(&quot;cf-hash&quot;))return t[e]}();if(t&amp;&amp;t.previousSibling){var e,r,n,i,c=t.previousSibling,a=c.getAttribute(&quot;data-cfemail&quot;);if(a){for(e=&quot;&quot;,r=parseInt(a.substr(0,2),16),n=2;a.length-n;n+=2)i=parseInt(a.substr(n,2),16)^r,e+=String.fromCharCode(i);e=document.createTextNode(e),c.parentNode.replaceChild(e,c)}}}catch(u){}}();/* ]]&gt; */&lt;/script&gt;\n      Codec ID : V_MPEG4/ISO/AVC\n      Duration : 1h 49mn\n      Bit rate : 5 156 Kbps\n      Nominal bit rate : 5 268 Kbps\n      Width : 960 pixels\n      Height : 720 pixels\n      Display aspect ratio : 4:3\n      Frame rate : 23.976 fps\n      Resolution : 24 bits\n      Colorimetry : 4:2:0\n      Scan type : Progressive\n      Bits/(Pixel*Frame) : 0.311\n      Stream size : 3.95 GiB (90%)\n      Writing library : x264 core 114 r1924 08d04a4      \n   Audio #2\n      ID : 2\n      Format : AC-3\n      Format/Info : Audio Coding 3\n      Codec ID : A_AC3\n      Duration : 1h 49mn\n      Bit rate mode : Constant\n      Bit rate : 448 Kbps\n      Channel(s) : 2 channels\n      Channel positions : L R\n      Sampling rate : 48.0 KHz\n      Stream size : 351 MiB (8%)\n      Language : Japanese\n   Text #3\n      ID : 3\n      Format : UTF-8\n      Codec ID : S_TEXT/UTF8\n      Codec ID/Info : UTF-8 Plain Text\n &lt;a href=&quot;\nhttp://www.imdb.com/title/tt0050613/&quot; rel=&quot;nofollow&quot; target=&quot;_NEW&quot;&gt;\nhttp://www.imdb.com/title/tt0050613/&lt;/a&gt;\n\nLanguage: Japanese\nSubtitles: English (in mkv), Spanish and Portuguese (srt)\n\nPosted originally at KG by EceAyhan, whom we thank ","torrent":{"xt":"urn:btih:c751fe98815f11db941eabb538f5196bc27a834e","amp;dn":"Kumonosu-jo+%5BThrone+of+Blood%5D+%28Kurosawa%2C+1957%29","amp;tr":["udp%3A%2F%2Ftracker.openbittorrent.com%3A80","udp%3A%2F%2Fopen.demonii.com%3A1337","udp%3A%2F%2Ftracker.coppersurfer.tk%3A6969","udp%3A%2F%2Fexodus.desync.com%3A6969"],"infoHash":"c751fe98815f11db941eabb538f5196bc27a834e","infoHashBuffer":{"type":"Buffer","data":[199,81,254,152,129,95,17,219,148,30,171,181,56,245,25,107,194,122,131,78]},"announce":[],"urlList":[]}}